Coordinates
version=1
nRows=14
nColumns=46
inDegrees=yes

Units are S.I. units (second, meters, Newtons, ...)
Angles are in degrees.

endheader
time	pelvis_tilt	pelvis_list	pelvis_rotation	pelvis_tx	pelvis_ty	pelvis_tz	bb_angle	bb_tx	bb_ty	bb_tz	hip_flexion_r	hip_adduction_r	hip_rotation_r	knee_angle_r	knee_angle_r_beta	ankle_angle_r	subtalar_angle_r	mtp_angle_r	crank_angle_r	hip_flexion_l	hip_adduction_l	hip_rotation_l	knee_angle_l	knee_angle_l_beta	ankle_angle_l	subtalar_angle_l	mtp_angle_l	crank_angle_l	lumbar_extension	lumbar_bending	lumbar_rotation	arm_flex_r	arm_add_r	arm_rot_r	elbow_flex_r	pro_sup_r	wrist_flex_r	wrist_dev_r	arm_flex_l	arm_add_l	arm_rot_l	elbow_flex_l	pro_sup_l	wrist_flex_l	wrist_dev_l
      0.00500000	    -32.18350217	      0.84281725	     -6.16156760	      0.07531471	      0.99057072	     -0.20336275	      0.00000000	      0.50000000	      0.00000000	      0.25000000	     98.11637416	     -3.17347652	     -1.76120155	     79.98654028	      1.39602849	     13.39342940	     -3.01297282	      0.00000000	      0.00000000	     69.73659703	    -11.86476472	     -1.46983241	     73.45499202	      1.28203146	     -9.09871523	    -10.04061889	      0.00000000	      0.00000000	    -33.54972229	     -0.73666191	      3.97504176	     89.28676221	     -6.30423388	     45.09837796	     28.71389799	     35.45929268	      0.00000000	      0.00000000	     88.80075162	    -10.72291271	     48.56602713	     33.05217251	     36.18497406	      0.00000000	      0.00000000
      0.01000000	    -32.19534640	      0.87560764	     -6.19773834	      0.07527574	      0.99054637	     -0.20332608	      0.00000000	      0.50000000	      0.00000000	      0.25000000	     98.08007374	     -3.12797753	     -1.76316210	     79.90254832	      1.39456255	     13.59442660	     -3.07405890	      0.00000000	      0.00000000	     69.74274187	    -11.86358620	     -1.45653279	     73.46637397	      1.28223012	     -9.03766252	    -10.01324372	      0.00000000	      0.00000000	    -33.53409703	     -0.78919198	      3.94536111	     89.28644634	     -6.17941762	     44.68650099	     28.62929962	     35.78585565	      0.00000000	      0.00000000	     88.80874456	    -10.62712984	     48.18119316	     32.90900859	     36.56724985	      0.00000000	      0.00000000
      0.01500000	    -32.17864393	      0.91410743	     -6.15348236	      0.07527647	      0.99058131	     -0.20351152	      0.00000000	      0.50000000	      0.00000000	      0.25000000	     98.02593426	     -3.20326118	     -1.73522727	     79.82780414	      1.39325802	     13.56056028	     -2.99160894	      0.00000000	      0.00000000	     69.75171280	    -11.79444380	     -1.51250371	     73.51213931	      1.28302887	     -9.10442527	    -10.14808450	      0.00000000	      0.00000000	    -33.53866380	     -0.78999767	      3.90595342	     89.28259460	     -5.99308649	     44.21406065	     28.21743184	     36.18566580	      0.00000000	      0.00000000	     88.77516443	    -10.47721087	     47.69374928	     32.62487105	     37.04390524	      0.00000000	      0.00000000
      0.02000000	    -32.09741237	      0.86578953	     -6.25691500	      0.07531448	      0.99074121	     -0.20348137	      0.00000000	      0.50000000	      0.00000000	      0.25000000	     97.84908725	     -3.09675045	     -1.78874727	     79.71517534	      1.39129227	     13.69329532	     -2.94518632	      0.00000000	      0.00000000	     69.66559421	    -11.93349282	     -1.55367281	     73.56258638	      1.28390934	     -9.11682906	    -10.25119211	      0.00000000	      0.00000000	    -33.68741682	     -0.77863455	      4.02914572	     89.26987920	     -6.01615033	     43.76213464	     28.55659946	     36.49261230	      0.00000000	      0.00000000	     88.74379128	    -10.49220610	     47.22561202	     32.91725259	     37.37326866	      0.00000000	      0.00000000
      0.02500000	    -32.19532391	      0.79158600	     -6.32316220	      0.07525976	      0.99017345	     -0.20337740	      0.00000000	      0.50000000	      0.00000000	      0.25000000	     97.97188436	     -3.01641759	     -1.84535392	     79.74838494	      1.39187189	     13.62300033	     -3.08179850	      0.00000000	      0.00000000	     69.76188789	    -12.03449040	     -1.44194509	     73.59110463	      1.28440708	     -8.91769768	     -9.66993072	      0.00000000	      0.00000000	    -33.49748601	     -0.73017635	      4.16541542	     89.28710144	     -6.34732881	     45.47350919	     28.13116811	     37.51931870	      0.00000000	      0.00000000	     88.84996497	    -10.65146161	     48.91367134	     32.25398999	     38.63038810	      0.00000000	      0.00000000
      0.03000000	    -32.15008870	      0.80697978	     -6.26825585	      0.07522406	      0.99025509	     -0.20350887	      0.00000000	      0.50000000	      0.00000000	      0.25000000	     97.89612761	     -3.08289837	     -1.78716961	     79.72520926	      1.39146740	     13.64645636	     -2.97922661	      0.00000000	      0.00000000	     69.72147835	    -11.94315807	     -1.43723449	     73.58655082	      1.28432760	     -9.09066816	     -9.91385101	      0.00000000	      0.00000000	    -33.60164732	     -0.71304670	      4.09966646	     89.28156581	     -6.29007217	     44.91504662	     28.31929151	     37.58698162	      0.00000000	      0.00000000	     88.78677176	    -10.60512557	     48.04975827	     32.58384290	     38.74188328	      0.00000000	      0.00000000
      0.03500000	    -32.29124886	      0.72994935	     -6.27453706	      0.07506973	      0.99014204	     -0.20367566	      0.00000000	      0.50000000	      0.00000000	      0.25000000	     97.93639863	     -3.08054821	     -1.89099056	     79.53701839	      1.38818285	     13.72543624	     -2.90363366	      0.00000000	      0.00000000	     69.91726980	    -11.93620520	     -1.34709240	     73.59983752	      1.28455949	     -9.44677634	    -10.46721608	      0.00000000	      0.00000000	    -33.47489603	     -0.53994514	      4.13006645	     89.26549297	     -5.62980493	     43.27272698	     27.74973825	     37.81203380	      0.00000000	      0.00000000	     88.63223463	    -10.26002201	     46.09711536	     32.14987474	     38.97572454	      0.00000000	      0.00000000
      0.04000000	    -32.17892936	      0.83677587	     -6.30290360	      0.07519810	      0.99010673	     -0.20348082	      0.00000000	      0.50000000	      0.00000000	      0.25000000	     97.87240095	     -3.03291535	     -1.79265607	     79.60007178	      1.38928334	     13.67479121	     -3.07934707	      0.00000000	      0.00000000	     69.77639604	    -11.96567625	     -1.44795428	     73.68147673	      1.28598437	     -8.92502991	     -9.64945037	      0.00000000	      0.00000000	    -33.50971176	     -0.74786714	      4.08296250	     89.29723459	     -6.40168373	     45.97637634	     28.14274437	     37.85221781	      0.00000000	      0.00000000	     88.84474165	    -10.77080207	     48.82835291	     32.28546088	     39.50003731	      0.00000000	      0.00000000
      0.04500000	    -32.16422321	      0.82939586	     -6.31130117	      0.07517785	      0.99011655	     -0.20347452	      0.00000000	      0.50000000	      0.00000000	      0.25000000	     97.82473974	     -3.01671099	     -1.80037880	     79.54409926	      1.38830643	     13.67325408	     -3.10069195	      0.00000000	      0.00000000	     69.78127845	    -11.98120546	     -1.43904784	     73.72968123	      1.28682569	     -8.88946432	     -9.61794835	      0.00000000	      0.00000000	    -33.52927482	     -0.74314073	      4.07283800	     89.29424420	     -6.08118757	     45.07057667	     27.73638035	     38.12483243	      0.00000000	      0.00000000	     88.80354472	    -10.45071441	     47.69069019	     31.86305424	     39.71850283	      0.00000000	      0.00000000
      0.05000000	    -32.19257745	      0.85913540	     -6.32609608	      0.07517607	      0.99009780	     -0.20353300	      0.00000000	      0.50000000	      0.00000000	      0.25000000	     97.84073902	     -3.00983600	     -1.77407609	     79.51074847	      1.38772435	     13.64637230	     -3.08313877	      0.00000000	      0.00000000	     69.80667590	    -11.96407676	     -1.46702764	     73.73634440	      1.28694199	     -8.96306484	     -9.74628920	      0.00000000	      0.00000000	    -33.49521873	     -0.76432781	      4.09076837	     89.28616978	     -6.09513738	     45.03886652	     27.76356431	     38.20323296	      0.00000000	      0.00000000	     88.79903664	    -10.44309025	     47.73810025	     31.89965518	     39.85554120	      0.00000000	      0.00000000
      0.05500000	    -32.22599525	      0.83527565	     -6.39562973	      0.07516774	      0.98999795	     -0.20342210	      0.00000000	      0.50000000	      0.00000000	      0.25000000	     97.84390620	     -2.92009524	     -1.80067659	     79.46110209	      1.38685786	     13.61470007	     -3.14468516	      0.00000000	      0.00000000	     69.87097911	    -12.06680398	     -1.46398127	     73.81400461	      1.28829741	     -8.87549026	     -9.59635591	      0.00000000	      0.00000000	    -33.45033134	     -0.77080978	      4.19038785	     89.28586578	     -6.37975977	     45.77831878	     28.06959174	     38.17999710	      0.00000000	      0.00000000	     88.84409088	    -10.66843515	     48.73750322	     31.99708483	     40.09369856	      0.00000000	      0.00000000
      0.06000000	    -32.16560366	      0.78054331	     -6.28511857	      0.07513226	      0.99017778	     -0.20365713	      0.00000000	      0.50000000	      0.00000000	      0.25000000	     97.73406033	     -3.05231966	     -1.84660581	     79.42152969	      1.38616719	     13.69678905	     -3.02867779	      0.00000000	      0.00000000	     69.83791491	    -11.94081179	     -1.34889318	     73.79647445	      1.28799146	     -9.13428085	     -9.95898265	      0.00000000	      0.00000000	    -33.55489942	     -0.64252401	      4.08738225	     89.28421976	     -5.62916468	     43.56001067	     27.22883833	     38.91357068	      0.00000000	      0.00000000	     88.72252206	    -10.13917961	     46.12545873	     31.69363936	     40.51751209	      0.00000000	      0.00000000
      0.06500000	    -32.16708993	      0.81882461	     -6.38899715	      0.07513280	      0.99019835	     -0.20346580	      0.00000000	      0.50000000	      0.00000000	      0.25000000	     97.71331439	     -2.91758088	     -1.80440538	     79.35440915	      1.38499572	     13.65612957	     -3.07632633	      0.00000000	      0.00000000	     69.82131755	    -12.05863208	     -1.46827188	     73.83129129	      1.28859912	     -9.05022085	     -9.94337642	      0.00000000	      0.00000000	    -33.55756667	     -0.75932047	      4.20267302	     89.28561685	     -5.82137503	     43.83155632	     27.40379728	     38.99582680	      0.00000000	      0.00000000	     88.74540231	    -10.16122628	     46.58038187	     31.73002469	     40.63593431	      0.00000000	      0.00000000
      0.07000000	    -32.17834245	      0.79755661	     -6.33882171	      0.07510266	      0.99012258	     -0.20357155	      0.00000000	      0.50000000	      0.00000000	      0.25000000	     97.71836181	     -2.97191381	     -1.82205520	     79.36236911	      1.38513464	     13.69871387	     -3.09406634	      0.00000000	      0.00000000	     69.86609060	    -12.00675803	     -1.38933824	     73.87390981	      1.28934296	     -8.96918158	     -9.78158133	      0.00000000	      0.00000000	    -33.53238847	     -0.68379274	      4.18505401	     89.28462518	     -5.93617531	     44.15441438	     27.56755928	     39.03024753	      0.00000000	      0.00000000	     88.77381072	    -10.32646116	     46.76487822	     31.77999350	     40.69018283	      0.00000000	      0.00000000
